<svg width="495" height="241" viewBox="0 0 495 241" fill="none" xmlns="http://www.w3.org/2000/svg">
<mask id="mask0" mask-type="alpha" maskUnits="userSpaceOnUse" x="0" y="0" width="495" height="241">
<rect width="495" height="240.221" fill="#C4C4C4"/>
</mask>
<g mask="url(#mask0)">
<path d="M45.5482 -217.467C-10.9047 -189.998 -153.932 27.6398 -173.493 85.5246C-219.391 221.349 64.6062 85.5247 217.169 85.5246C275.782 85.5246 318.663 82.6273 374.722 65.5136C488.061 30.9133 549.215 -157.314 549.215 -157.314L732.464 -451.884L623.69 -537.467C623.69 -537.467 543.627 -496.556 512.808 -452.328C493.591 -424.748 478.119 -373.774 478.119 -373.774C478.119 -373.774 435.044 -271.746 374.722 -243.758C329.914 -222.967 246.249 -229.416 246.249 -229.416C246.249 -229.416 114.33 -250.935 45.5482 -217.467Z" fill="#760076"/>
<path d="M167.427 114.441C204.849 67.0365 224.663 29.0358 219.596 -31.1471C207.706 -172.364 -11.7504 -144.618 -139.522 -83.3162C-172.459 -67.5138 -190.863 -56.4956 -217.169 -31.1471C-301.285 49.9069 -280.257 261.243 -280.257 261.243L-325.147 600.949L-201.397 634.919C-201.397 634.919 -149.052 565.921 -139.522 513.596C-133.579 480.966 -139.522 428.669 -139.522 428.669C-139.522 428.669 -141.194 319.156 -100.698 269.735C-70.618 233.025 2.42654 205.434 2.42654 205.434C2.42654 205.434 121.832 172.198 167.427 114.441Z" fill="#FF9919"/>
</g>
</svg>
