<svg width="557" height="395" viewBox="0 0 557 395" fill="none" xmlns="http://www.w3.org/2000/svg">
<mask id="mask0" mask-type="alpha" maskUnits="userSpaceOnUse" x="0" y="0" width="557" height="396">
<rect x="0.0100098" width="556.99" height="395.028" fill="#C4C4C4"/>
</mask>
<g mask="url(#mask0)">
<path d="M128.296 267.662C81.1168 281.482 50.0559 297.362 25.0511 339.69C-33.6216 439.011 125.097 524.04 238.786 543.583C268.093 548.621 285.5 549.983 314.906 545.561C408.934 531.419 494.593 381.256 494.593 381.256L684.505 176.973L618.392 96.0983C618.392 96.0983 551.131 117.215 520.143 147.448C500.819 166.301 505.865 186.67 490.833 208.378C460 252.905 432.189 278.733 379.433 290.984C341.802 299.723 276.53 285.409 276.53 285.409C276.53 285.409 185.779 250.823 128.296 267.662Z" fill="#760076"/>
<path d="M207.126 377.71C170.892 410.936 150.03 438.895 146.276 487.913C137.468 602.933 317.419 609.173 428.06 576.528C456.581 568.113 472.802 561.652 497.236 544.704C575.367 490.511 585.949 317.959 585.949 317.959L666.19 50.8261L571.168 7.43847C571.168 7.43847 536.001 60.2602 518.485 96.7823C503.96 127.068 499.25 145.547 486.883 176.776C469.706 220.148 476.732 255.806 442.769 287.787C414.644 314.272 351.543 326.047 351.543 326.047C351.543 326.047 251.274 337.228 207.126 377.71Z" fill="#FF9919"/>
</g>
</svg>
